<?xml version="1.0" standalone="no"?>
<!DOCTYPE svg PUBLIC "-//W3C//DTD SVG 20010904//EN"
 "http://www.w3.org/TR/2001/REC-SVG-20010904/DTD/svg10.dtd">
<svg version="1.0" xmlns="http://www.w3.org/2000/svg"
 width="256.000000pt" height="256.000000pt" viewBox="0 0 256.000000 256.000000"
 preserveAspectRatio="xMidYMid meet">
<metadata>
Created by potrace 1.14, written by Peter Selinger 2001-2017
</metadata>
<g transform="translate(0.000000,256.000000) scale(0.100000,-0.100000)"
fill="#000000" stroke="none">
<path d="M1615 1766 c-109 -21 -182 -62 -212 -119 -39 -76 -51 -137 -49 -250
5 -245 93 -317 416 -343 47 -3 87 -8 89 -10 10 -9 7 -83 -3 -87 -17 -7 -328
-1 -356 6 -14 4 -38 9 -55 13 -16 3 -38 8 -47 10 -13 4 -18 -5 -24 -43 -3 -26
-8 -57 -11 -68 -11 -56 -17 -103 -18 -134 0 -32 3 -36 35 -42 141 -30 397 -43
528 -27 90 11 186 44 220 76 93 89 131 293 79 432 -34 91 -131 166 -244 186
-13 2 -35 6 -50 9 -16 3 -55 8 -88 11 -71 8 -98 11 -105 13 -3 0 -6 19 -5 40
0 29 5 41 17 44 42 11 338 -3 385 -18 11 -4 17 12 28 85 3 19 7 49 10 65 14
86 17 125 9 125 -5 0 -47 7 -94 15 -108 20 -375 26 -455 11z"/>
<path d="M292 1752 c-13 -2 -22 -9 -19 -15 2 -7 62 -245 132 -529 l129 -518
248 0 247 0 10 38 c38 142 251 1015 249 1018 -4 3 -266 7 -329 5 -24 -1 -27
-6 -42 -78 -9 -43 -25 -121 -37 -173 -12 -52 -23 -106 -26 -120 -3 -14 -18
-85 -34 -158 -17 -74 -30 -136 -30 -138 0 -2 -4 -4 -9 -4 -7 0 -35 113 -57
230 -3 14 -16 75 -30 135 -13 61 -27 124 -30 140 -3 17 -12 60 -20 98 l-16 67
-76 1 c-42 0 -113 1 -157 2 -44 1 -90 1 -103 -1z"/>
</g>
</svg>
